<?xml version="1.0" standalone="no"?>
<!DOCTYPE svg PUBLIC "-//W3C//DTD SVG 20010904//EN"
 "http://www.w3.org/TR/2001/REC-SVG-20010904/DTD/svg10.dtd">
<svg version="1.0" xmlns="http://www.w3.org/2000/svg"
 width="512.000000pt" height="512.000000pt" viewBox="0 0 512.000000 512.000000"
 preserveAspectRatio="xMidYMid meet">

<g transform="translate(0.000000,512.000000) scale(0.100000,-0.100000)"
fill="#000000" stroke="none">
<path d="M3045 4984 c-253 -63 -646 -160 -874 -216 l-414 -102 -539 -570
c-296 -313 -537 -570 -536 -571 2 -2 383 44 848 101 465 57 850 104 856 104 7
0 245 251 530 558 285 306 520 558 523 559 3 1 247 -302 541 -673 294 -371
540 -679 546 -684 10 -9 203 -34 210 -27 4 3 -1220 1636 -1226 1636 -3 0 -212
-52 -465 -115z"/>
<path d="M2942 4160 c-271 -292 -498 -530 -505 -531 -7 0 -385 -46 -842 -102
l-830 -102 -3 -652 -2 -652 -377 -313 -378 -313 223 -3 222 -2 0 -628 0 -627
992 -107 993 -107 570 59 c314 33 580 60 593 60 l22 0 0 618 0 619 182 6 c99
4 259 7 355 7 l173 0 0 -585 0 -585 28 0 c15 0 88 7 162 15 74 8 141 15 148
15 9 0 12 128 12 605 l0 605 215 2 215 3 -360 328 -360 328 0 677 0 678 -475
603 c-261 333 -476 606 -478 607 -2 2 -225 -235 -495 -526z m509 90 c131 -68
187 -316 107 -478 -114 -226 -376 -36 -355 258 13 184 125 282 248 220z
m-1241 -1285 l0 -295 -27 0 c-16 0 -122 -7 -238 -15 -115 -8 -225 -15 -243
-15 l-32 0 2 283 3 282 255 26 c140 15 261 27 268 28 9 1 12 -64 12 -294z
m768 268 l272 -27 0 -281 c0 -155 -2 -284 -4 -286 -6 -5 -556 29 -573 36 -10
3 -13 72 -13 295 l0 290 23 0 c12 0 145 -12 295 -27z m-1528 -338 l0 -274 -42
-5 c-49 -6 -369 -26 -417 -26 l-31 0 0 270 0 270 23 1 c12 0 119 10 237 23
118 12 218 21 223 19 4 -2 7 -127 7 -278z m2415 245 c110 -11 207 -20 217 -20
17 0 18 -18 18 -270 l0 -270 -47 0 c-27 0 -142 7 -258 15 -115 8 -211 15 -212
15 -2 0 -3 126 -3 281 l0 280 43 -5 c23 -4 132 -15 242 -26z m-732 -866 l137
-7 0 -283 0 -284 -295 0 -295 0 0 296 0 297 158 -7 c86 -3 219 -9 295 -12z
m-903 -299 l0 -295 -270 0 -270 0 0 285 0 285 73 1 c39 1 142 5 227 9 85 3
174 7 198 8 l42 2 0 -295z m1798 259 l82 -6 0 -269 0 -269 -257 2 -258 3 -3
279 -2 278 177 -6 c98 -4 215 -9 261 -12z m-2568 -284 l0 -280 -242 2 -243 3
0 270 0 270 135 5 c74 3 183 7 243 8 l107 2 0 -280z m1838 -879 c1 -160 -2
-279 -7 -284 -9 -9 -392 -36 -519 -37 l-62 0 2 293 3 292 210 5 c116 4 246 6
290 5 l80 0 3 -274z m-1884 263 l46 -7 0 -277 0 -278 -42 4 c-66 6 -382 24
-417 24 l-31 0 0 270 0 270 199 0 c109 0 219 -3 245 -6z m749 -11 l67 -6 0
-288 0 -289 -42 0 c-66 0 -450 21 -475 26 l-23 4 0 280 0 280 203 0 c111 0
232 -3 270 -7z"/>
</g>
</svg>
