<?xml version="1.0" standalone="no"?>
<!DOCTYPE svg PUBLIC "-//W3C//DTD SVG 20010904//EN"
 "http://www.w3.org/TR/2001/REC-SVG-20010904/DTD/svg10.dtd">
<svg version="1.0" xmlns="http://www.w3.org/2000/svg"
 width="920.000000pt" height="512.000000pt" viewBox="0 0 920.000000 512.000000"
 preserveAspectRatio="xMidYMid meet">

<g transform="translate(0.000000,512.000000) scale(0.100000,-0.100000)"
fill="#000000" stroke="none">
<path d="M5535 4736 c-184 -31 -329 -87 -471 -182 -629 -418 -706 -1304 -158
-1824 256 -243 614 -359 959 -310 268 38 549 188 713 379 204 236 295 477 295
776 0 161 -13 242 -60 383 -129 388 -463 681 -873 767 -104 22 -306 28 -405
11z m348 -204 l39 -7 -54 -35 c-77 -51 -111 -120 -105 -215 7 -123 76 -219
177 -249 l45 -13 -60 -13 c-124 -26 -260 -86 -323 -144 -86 -77 -80 -221 12
-291 88 -67 201 -88 473 -89 211 -1 211 -1 238 -26 15 -14 32 -39 39 -55 30
-72 122 -133 212 -142 30 -3 54 -9 54 -12 0 -26 -103 -204 -158 -271 -62 -78
-181 -190 -201 -190 -5 0 -11 10 -15 23 -3 12 -21 37 -40 56 -27 27 -45 35
-84 39 l-49 4 -12 54 c-26 115 -116 168 -222 133 -57 -19 -96 -56 -125 -116
-15 -32 -29 -60 -30 -62 -2 -2 -16 6 -31 17 -69 49 -236 83 -307 64 -80 -23
-145 -91 -169 -179 -6 -24 -15 -43 -19 -43 -14 0 -122 91 -171 143 -26 29 -65
77 -87 108 l-38 56 34 12 c104 38 277 190 316 277 41 95 1 193 -102 247 -30
16 -55 33 -55 40 0 6 29 30 65 54 89 60 119 90 146 148 55 116 10 228 -145
361 -45 38 -81 72 -81 76 0 13 137 109 210 147 155 80 305 113 475 105 61 -3
127 -8 148 -12z"/>
<path d="M3745 2643 c-46 -12 -1669 -474 -1672 -477 -3 -2 306 -1089 311
-1093 1 -1 231 63 511 143 l510 144 145 -88 c80 -49 201 -124 270 -167 69 -43
163 -101 210 -130 47 -29 135 -83 195 -120 233 -145 276 -160 434 -152 101 5
142 15 916 236 446 128 929 266 1075 307 146 42 284 87 306 100 54 31 101 85
133 154 22 47 26 69 26 145 0 116 -25 175 -102 245 -87 80 -181 98 -318 61
-78 -21 -964 -269 -981 -275 -7 -3 -8 -22 -4 -58 21 -151 -59 -321 -190 -403
-21 -13 -67 -34 -102 -46 -86 -29 -210 -23 -292 14 -45 21 -598 330 -616 345
-8 6 47 97 59 95 5 -2 147 -79 314 -173 329 -184 357 -195 460 -179 80 13 125
38 180 99 55 61 77 122 77 209 0 74 -29 150 -71 187 -13 12 -197 117 -409 234
-212 117 -464 256 -560 310 -508 282 -560 309 -617 324 -58 15 -155 19 -198 9z"/>
</g>
</svg>
