<?xml version="1.0" standalone="no"?>
<!DOCTYPE svg PUBLIC "-//W3C//DTD SVG 20010904//EN"
 "http://www.w3.org/TR/2001/REC-SVG-20010904/DTD/svg10.dtd">
<svg version="1.0" xmlns="http://www.w3.org/2000/svg"
 width="256.000000pt" height="256.000000pt" viewBox="0 0 256.000000 256.000000"
 preserveAspectRatio="xMidYMid meet">

<g transform="translate(0.000000,256.000000) scale(0.100000,-0.100000)"
fill="#000000" stroke="none">
<path d="M1064 1952 c-106 -92 -277 -241 -382 -332 -105 -91 -191 -167 -192
-170 0 -3 17 -24 38 -47 l37 -42 196 172 c108 95 225 197 259 227 35 30 91 79
124 109 34 29 75 65 93 78 l32 25 78 -68 c43 -38 92 -80 108 -95 109 -96 152
-133 240 -209 91 -78 158 -136 242 -211 l31 -28 36 39 c20 22 36 44 36 48 0 5
-37 40 -82 79 -46 38 -218 188 -383 332 -165 143 -304 261 -310 261 -5 0 -96
-76 -201 -168z"/>
<path d="M720 1890 l0 -141 27 25 c14 13 57 51 94 83 l68 58 0 58 1 57 -95 0
-95 0 0 -140z"/>
<path d="M1084 1703 c-98 -85 -221 -192 -272 -235 l-92 -80 2 -356 3 -357 182
-3 183 -2 2 162 3 163 170 0 170 0 3 -162 2 -163 180 0 c206 0 201 -2 196 91
-2 30 -4 183 -5 341 l-1 287 -222 193 c-220 192 -279 242 -309 265 -13 10 -44
-12 -195 -144z"/>
</g>
</svg>
