<?xml version="1.0" standalone="no"?>
<!DOCTYPE svg PUBLIC "-//W3C//DTD SVG 20010904//EN"
 "http://www.w3.org/TR/2001/REC-SVG-20010904/DTD/svg10.dtd">
<svg version="1.0" xmlns="http://www.w3.org/2000/svg"
 width="200.000000pt" height="200.000000pt" viewBox="0 0 200.000000 200.000000"
 preserveAspectRatio="xMidYMid meet">

<g transform="translate(0.000000,200.000000) scale(0.100000,-0.100000)"
fill="#000000" stroke="none">
<path d="M898 1930 c-147 -26 -249 -81 -358 -190 -92 -92 -139 -170 -169 -281
-17 -59 -19 -62 -63 -79 -101 -38 -167 -102 -216 -208 -22 -47 -26 -71 -26
-143 0 -80 3 -92 37 -163 42 -84 93 -134 179 -176 l51 -25 29 -100 c34 -121
34 -123 6 -127 -18 -2 -23 -10 -23 -33 l0 -30 93 -3 92 -3 0 36 c0 31 -3 35
-26 35 -19 0 -24 4 -20 18 3 9 17 60 31 113 l27 95 56 27 57 28 62 -28 63 -28
85 -260 c47 -143 85 -264 85 -268 0 -4 -9 -7 -20 -7 -16 0 -20 -7 -20 -35 l0
-35 90 0 90 0 0 35 c0 28 -4 35 -20 35 -11 0 -20 3 -20 7 0 3 32 107 72 230
l72 224 28 -59 c36 -76 105 -145 179 -180 l59 -27 26 -85 c14 -47 27 -91 29
-97 3 -8 -5 -13 -20 -13 -22 0 -25 -4 -25 -35 l0 -36 93 3 92 3 0 30 c0 23 -5
31 -22 33 -13 2 -23 6 -23 9 0 3 12 46 27 95 l26 89 69 36 c184 97 258 317
166 498 -44 86 -133 163 -214 185 -27 7 -52 16 -56 19 -4 4 0 33 9 66 21 79
21 231 0 315 -30 117 -83 206 -177 300 -92 93 -160 134 -274 169 -78 24 -217
34 -288 21z m296 -88 c168 -62 309 -202 367 -366 30 -85 37 -248 15 -335 -44
-171 -159 -312 -321 -393 l-90 -45 -79 -246 c-44 -136 -83 -247 -86 -247 -4 0
-42 111 -86 247 l-80 247 -89 44 c-72 35 -105 59 -165 120 -118 120 -170 247
-170 412 0 158 51 288 158 402 78 83 143 125 247 161 73 25 90 27 200 24 92
-2 134 -8 179 -25z m-854 -552 c0 -22 -7 -33 -27 -44 -71 -37 -122 -128 -123
-217 0 -164 170 -289 322 -235 34 12 39 12 58 -8 11 -12 20 -25 20 -28 0 -4
-22 -14 -49 -23 -54 -18 -50 -10 -91 -165 l-12 -45 -27 94 c-14 52 -33 97 -41
101 -8 4 -36 17 -61 28 -68 30 -114 75 -149 144 -26 52 -30 72 -30 137 1 115
48 205 138 262 58 37 72 37 72 -1z m20 -152 c19 -81 47 -144 94 -218 l44 -68
-29 -6 c-83 -16 -169 33 -204 116 -19 47 -19 89 1 136 15 36 60 92 75 92 4 0
13 -24 19 -52z m1340 -171 c104 -49 170 -154 170 -273 0 -138 -59 -232 -185
-290 l-70 -32 -26 -84 -26 -83 -27 87 c-26 85 -28 88 -65 98 -107 29 -196 131
-216 251 -6 31 -4 36 21 47 14 7 27 11 29 10 1 -2 7 -29 14 -61 32 -146 176
-229 325 -185 55 16 138 99 154 154 43 147 -39 293 -182 325 l-55 12 17 29
c14 25 21 28 47 22 16 -4 50 -16 75 -27z m-54 -113 c73 -35 112 -115 99 -200
-6 -40 -16 -57 -54 -95 -38 -38 -55 -48 -95 -54 -122 -19 -216 62 -216 185 0
51 1 53 68 116 63 59 70 63 115 64 27 0 64 -7 83 -16z"/>
<path d="M734 1712 c-6 -4 -54 -65 -107 -136 l-97 -129 0 -212 c0 -151 3 -214
12 -223 17 -17 899 -17 916 0 9 9 12 72 12 223 l0 212 -97 129 c-53 71 -101
132 -107 136 -6 4 -126 8 -266 8 -140 0 -260 -4 -266 -8z m559 -132 c95 -122
109 -110 -132 -110 l-209 0 -66 89 c-36 48 -66 91 -66 95 0 3 93 5 207 4 l207
-3 59 -75z m-460 -54 l77 -104 -2 -179 -3 -178 -30 0 -30 0 -5 120 -5 120 -85
0 -85 0 -5 -120 -5 -120 -30 0 -30 0 -3 178 -2 179 77 104 c42 57 80 104 83
104 3 0 41 -47 83 -104z m572 -291 l0 -170 -217 -3 -218 -2 0 175 0 175 218
-2 217 -3 0 -170z m-625 -80 l0 -95 -30 0 -30 0 0 95 0 95 30 0 30 0 0 -95z"/>
<path d="M1060 1280 c0 -28 3 -30 35 -30 32 0 35 2 35 30 0 28 -3 30 -35 30
-32 0 -35 -2 -35 -30z"/>
<path d="M1250 1280 c0 -27 3 -30 30 -30 27 0 30 3 30 30 0 27 -3 30 -30 30
-27 0 -30 -3 -30 -30z"/>
<path d="M594 426 c-12 -31 0 -51 31 -51 27 0 30 3 30 30 0 25 -4 30 -28 33
-17 2 -29 -2 -33 -12z"/>
<path d="M1160 96 c0 -33 2 -36 31 -36 28 0 30 2 27 33 -2 27 -8 33 -30 35
-26 3 -28 1 -28 -32z"/>
<path d="M1720 95 c0 -32 2 -35 30 -35 28 0 30 3 30 35 0 32 -2 35 -30 35 -28
0 -30 -3 -30 -35z"/>
</g>
</svg>
