<?xml version="1.0" standalone="no"?>
<!DOCTYPE svg PUBLIC "-//W3C//DTD SVG 20010904//EN"
 "http://www.w3.org/TR/2001/REC-SVG-20010904/DTD/svg10.dtd">
<svg version="1.0" xmlns="http://www.w3.org/2000/svg"
 width="242.000000pt" height="130.000000pt" viewBox="0 0 242.000000 130.000000"
 preserveAspectRatio="xMidYMid meet">

<g transform="translate(0.000000,130.000000) scale(0.100000,-0.100000)"
fill="#000000" stroke="none">
<path d="M2159 1133 c-33 -32 -55 -59 -49 -61 7 -3 33 16 59 42 26 25 51 46
57 46 5 0 30 -20 54 -45 51 -52 87 -63 46 -14 -14 17 -26 43 -26 57 -1 25 -2
26 -14 9 -9 -11 -17 -14 -21 -8 -3 6 -15 16 -26 21 -17 9 -28 3 -80 -47z"/>
<path d="M2176 1091 c-32 -33 -37 -44 -34 -77 3 -34 6 -39 31 -42 24 -3 27 0
27 27 0 26 4 31 25 31 21 0 25 -5 25 -31 0 -27 3 -30 28 -27 24 3 27 8 30 44
3 37 -1 44 -38 77 -22 21 -44 37 -48 37 -4 0 -25 -17 -46 -39z"/>
<path d="M180 992 l-85 -48 0 -139 c0 -125 2 -140 18 -143 15 -3 17 6 17 87
l0 91 150 0 150 0 0 -91 c0 -81 2 -90 18 -87 15 3 17 19 20 138 l2 135 -89 53
c-50 28 -96 52 -103 52 -7 -1 -51 -22 -98 -48z m190 -15 c74 -45 85 -56 87
-82 2 -27 2 -28 -7 -7 -8 19 -16 22 -73 22 -63 0 -64 0 -59 25 4 23 2 25 -38
25 -40 0 -42 -2 -38 -25 5 -25 4 -25 -58 -25 l-63 0 -4 -97 -3 -98 -2 111 -2
111 83 45 c45 25 84 46 87 46 3 1 43 -23 90 -51z m-65 -37 c4 -6 -7 -10 -27
-9 -31 1 -32 1 -8 9 14 4 26 8 27 9 1 1 5 -3 8 -9z m53 -57 c-43 -2 -113 -2
-155 0 -43 1 -8 3 77 3 85 0 120 -2 78 -3z m67 -23 c-4 -6 -63 -10 -145 -10
-82 0 -141 4 -145 10 -4 6 47 10 145 10 98 0 149 -4 145 -10z"/>
<path d="M2163 879 c-50 -47 -64 -69 -45 -69 4 0 28 20 52 45 24 25 49 45 55
45 6 0 31 -20 55 -45 24 -25 48 -45 52 -45 14 0 8 20 -12 40 -11 11 -20 31
-20 45 0 14 -4 25 -10 25 -5 0 -10 -8 -10 -17 0 -14 -3 -13 -23 5 -13 12 -27
22 -33 22 -5 0 -33 -23 -61 -51z"/>
<path d="M2176 831 c-32 -33 -37 -44 -34 -77 3 -34 6 -39 31 -42 24 -3 27 0
27 27 0 26 4 31 25 31 21 0 25 -5 25 -31 0 -27 3 -30 28 -27 24 3 27 8 30 42
3 33 -2 44 -34 77 -21 22 -43 39 -49 39 -6 0 -28 -17 -49 -39z"/>
<path d="M960 830 c0 -5 -9 -10 -20 -10 -16 0 -20 -7 -20 -35 0 -28 -4 -35
-20 -35 -17 0 -20 -7 -20 -50 l0 -50 105 0 105 0 0 50 c0 43 -3 50 -20 50 -16
0 -20 7 -20 35 0 28 -4 35 -20 35 -11 0 -20 5 -20 10 0 6 -11 10 -25 10 -14 0
-25 -4 -25 -10z m37 -6 c-3 -3 -12 -4 -19 -1 -8 3 -5 6 6 6 11 1 17 -2 13 -5z
m43 -84 c0 -40 -4 -70 -10 -70 -5 0 -10 14 -10 30 0 28 -3 30 -35 30 -32 0
-35 -2 -35 -29 0 -17 -4 -33 -10 -36 -6 -4 -10 22 -10 69 l0 76 55 0 55 0 0
-70z m-122 -37 c-2 -21 -7 -38 -13 -38 -5 0 -11 17 -13 38 -3 29 0 37 13 37
13 0 16 -8 13 -37z m160 0 c-4 -52 -28 -56 -28 -4 0 30 4 41 16 41 11 0 14 -9
12 -37z m-98 -7 c0 -14 -4 -28 -10 -31 -6 -4 -10 7 -10 24 0 17 5 31 10 31 6
0 10 -11 10 -24z m30 -6 c0 -16 -4 -30 -10 -30 -5 0 -10 14 -10 30 0 17 5 30
10 30 6 0 10 -13 10 -30z"/>
<path d="M976 782 c-2 -4 -1 -14 3 -21 6 -10 10 -9 14 3 6 16 -8 32 -17 18z"/>
<path d="M328 793 c-3 -36 -5 -38 -41 -41 l-38 -3 3 -42 3 -42 78 -3 77 -3 0
86 0 85 -39 0 c-39 0 -40 -1 -43 -37z m42 -3 c10 0 21 6 23 13 3 6 6 -3 6 -20
1 -30 -2 -33 -29 -33 -28 0 -30 2 -29 38 1 20 3 29 6 20 2 -10 13 -18 23 -18z
m-75 -80 c7 0 16 6 18 13 3 6 6 0 6 -15 1 -25 -3 -28 -29 -28 -27 0 -30 3 -30
33 1 26 2 29 11 15 5 -10 16 -18 24 -18z m75 0 c10 0 21 8 23 18 3 9 5 2 6
-15 1 -30 -2 -33 -29 -33 -27 0 -30 3 -29 33 1 17 3 24 6 15 2 -10 13 -18 23
-18z"/>
<path d="M1950 780 c0 -5 5 -10 10 -10 6 0 10 5 10 10 0 6 -4 10 -10 10 -5 0
-10 -4 -10 -10z"/>
<path d="M1410 762 c0 -5 7 -9 15 -9 8 0 15 4 15 9 0 4 -7 8 -15 8 -8 0 -15
-4 -15 -8z"/>
<path d="M1393 715 c0 -22 2 -30 4 -17 2 12 2 30 0 40 -3 9 -5 -1 -4 -23z"/>
<path d="M610 715 c0 -28 30 -45 81 -45 27 0 29 3 29 35 l0 35 -55 0 c-52 0
-55 -1 -55 -25z"/>
<path d="M1190 715 c0 -23 3 -25 50 -25 28 0 50 5 50 10 0 6 -7 10 -15 10 -8
0 -15 7 -15 15 0 10 -11 15 -35 15 -31 0 -35 -3 -35 -25z"/>
<path d="M1579 738 c-9 -33 -7 -50 6 -44 8 3 15 1 15 -4 0 -14 34 -12 49 3 11
10 12 9 6 -2 -5 -9 -4 -12 3 -7 17 10 15 26 -3 26 -8 0 -15 7 -15 15 0 10 -10
15 -30 15 -16 0 -30 -1 -31 -2z"/>
<path d="M1925 729 c-4 -6 -5 -12 -2 -15 2 -3 7 2 10 11 7 17 1 20 -8 4z"/>
<path d="M1974 725 c-4 -9 -4 -19 0 -22 3 -4 6 2 6 13 0 16 2 17 10 4 6 -9 10
-10 10 -3 0 19 -20 26 -26 8z"/>
<path d="M490 716 c0 -9 17 -16 46 -21 50 -7 59 -4 51 20 -8 20 -97 22 -97 1z"/>
<path d="M1323 722 c-13 -2 -23 -7 -23 -12 0 -12 50 -19 56 -8 9 14 -8 25 -33
20z"/>
<path d="M1500 715 c0 -9 9 -15 25 -15 16 0 25 6 25 15 0 9 -9 15 -25 15 -16
0 -25 -6 -25 -15z"/>
<path d="M1723 723 c-31 -6 -29 -29 2 -35 21 -4 25 -1 25 18 0 13 -1 23 -2 23
-2 -1 -13 -4 -25 -6z"/>
<path d="M2028 723 c-24 -6 -23 -29 2 -36 16 -4 20 0 20 19 0 13 -1 23 -2 23
-2 -1 -11 -3 -20 -6z"/>
<path d="M1100 708 c0 -8 11 -13 27 -12 40 1 44 18 6 22 -22 2 -33 -1 -33 -10z"/>
<path d="M1472 700 c0 -14 2 -19 5 -12 2 6 2 18 0 25 -3 6 -5 1 -5 -13z"/>
<path d="M1441 694 c0 -11 3 -14 6 -6 3 7 2 16 -1 19 -3 4 -6 -2 -5 -13z"/>
<path d="M730 685 c0 -9 9 -15 25 -15 16 0 25 6 25 15 0 9 -9 15 -25 15 -16 0
-25 -6 -25 -15z"/>
<path d="M2150 595 c-67 -67 -59 -85 9 -22 28 26 55 47 61 47 6 0 33 -21 61
-47 49 -46 82 -54 41 -10 -12 13 -22 35 -22 50 0 28 -9 34 -26 17 -8 -8 -15
-6 -24 5 -21 26 -44 17 -100 -40z"/>
<path d="M2167 552 c-26 -27 -37 -47 -37 -69 0 -56 62 -75 68 -20 3 20 9 27
26 27 17 0 22 -6 21 -27 0 -19 6 -29 18 -31 27 -6 47 17 47 53 0 25 -9 41 -40
69 -22 20 -46 36 -53 36 -7 0 -30 -17 -50 -38z"/>
<path d="M424 346 c-3 -7 -3 -38 -1 -67 l3 -54 2 62 2 62 48 4 47 3 -48 2
c-32 1 -49 -2 -53 -12z"/>
<path d="M2150 302 c-36 -32 -51 -52 -46 -61 6 -9 23 2 62 40 l54 53 54 -53
c35 -35 56 -49 61 -41 4 6 -2 22 -14 34 -12 12 -21 32 -21 44 0 27 -16 37 -28
17 -8 -15 -10 -15 -21 -1 -22 26 -44 19 -101 -32z"/>
<path d="M478 303 c7 -3 16 -2 19 1 4 3 -2 6 -13 5 -11 0 -14 -3 -6 -6z"/>
<path d="M2171 256 c-36 -36 -42 -49 -39 -77 3 -30 7 -34 36 -37 30 -3 32 -1
32 27 0 24 4 31 20 31 16 0 20 -7 20 -31 0 -28 2 -30 33 -27 28 3 32 7 35 37
3 28 -3 41 -39 77 -24 24 -46 44 -49 44 -3 0 -25 -20 -49 -44z"/>
<path d="M934 235 c-5 -7 -61 -30 -124 -50 -63 -21 -118 -40 -122 -44 -4 -3
-3 -12 1 -20 7 -11 31 -6 130 28 67 22 128 41 136 41 8 0 19 8 24 19 8 15 6
20 -13 29 -17 7 -25 7 -32 -3z"/>
<path d="M403 182 c-24 -2 -43 -7 -43 -13 0 -5 48 -9 110 -9 67 0 110 4 110
10 0 6 -17 10 -37 11 -21 0 -51 1 -68 2 -16 1 -49 1 -72 -1z"/>
</g>
</svg>
